# xmcd
#
# Track frame offsets:
#        150
#        16446
#        34264
#        50953
#        70404
#        89439
#        104622
#        121651
#        143269
#        160156
#        179336
#        197443
#        212875
#        229874
#
# Disc length: 3635 seconds
#
# Revision: 0
# Processed by: cddbd v1.5.1PL0 Copyright (c) Steve Scherf et al.
# Submitted via: ExactAudioCopy v0.95a5
#
DISCID=c40e310e
DTITLE=Natasha Bedingfield - Unwritten
DYEAR=2004
DGENRE=R&B
TTITLE0=These Words
TTITLE1=Single
TTITLE2=I'm A Bomb
TTITLE3=Unwritten
TTITLE4=I Bruise Easily
TTITLE5=If You're Gonna...
TTITLE6=Silent Movie
TTITLE7=We're All Mad
TTITLE8=Frogs and Princes
TTITLE9=Drop Me In The Middle (featuring Bizarre of D-12)
TTITLE10=Wild Horses
TTITLE11=Size Matters
TTITLE12=Peace Of Me
TTITLE13=The One That Got Away
EXTD=
EXTT0=
EXTT1=
EXTT2=
EXTT3=
EXTT4=
EXTT5=
EXTT6=
EXTT7=
EXTT8=
EXTT9=
EXTT10=
EXTT11=
EXTT12=
EXTT13=
PLAYORDER=
